<svg width="25" height="25" viewBox="0 0 25 25" fill="none" xmlns="http://www.w3.org/2000/svg">
<circle cx="12.5" cy="12.5" r="12.5" fill="#293146"/>
<g filter="url(#filter0_d_138_3482)">
<path fill-rule="evenodd" clip-rule="evenodd" d="M12.6942 7.77153C12.572 7.71043 12.4282 7.71043 12.306 7.77153L7.96571 9.94167C7.64581 10.1016 7.64581 10.5581 7.96571 10.7181L12.306 12.8882C12.4282 12.9493 12.572 12.9493 12.6942 12.8882L17.0345 10.7181C17.3544 10.5581 17.3544 10.1016 17.0345 9.94167L12.6942 7.77153ZM9.13033 10.3299L12.5001 8.64499L15.8699 10.3299L12.5001 12.0148L9.13033 10.3299ZM8.35392 14.2819C8.13952 14.1747 7.87881 14.2616 7.77161 14.476C7.66441 14.6904 7.75131 14.9512 7.96571 15.0584L12.306 17.2285C12.4282 17.2896 12.572 17.2896 12.6942 17.2285L17.0345 15.0584C17.2489 14.9512 17.3358 14.6904 17.2286 14.476C17.1214 14.2616 16.8607 14.1747 16.6463 14.2819L12.5001 16.355L8.35392 14.2819ZM7.77161 12.3059C7.87881 12.0915 8.13952 12.0046 8.35392 12.1118L12.5001 14.1849L16.6463 12.1118C16.8607 12.0046 17.1214 12.0915 17.2286 12.3059C17.3358 12.5203 17.2489 12.781 17.0345 12.8882L12.6942 15.0584C12.572 15.1195 12.4282 15.1195 12.306 15.0584L7.96571 12.8882C7.75131 12.781 7.66441 12.5203 7.77161 12.3059Z" fill="white"/>
<mask id="mask0_138_3482" style="mask-type:alpha" maskUnits="userSpaceOnUse" x="7" y="7" width="11" height="11">
<path fill-rule="evenodd" clip-rule="evenodd" d="M12.6942 7.77153C12.572 7.71043 12.4282 7.71043 12.306 7.77153L7.96571 9.94167C7.64581 10.1016 7.64581 10.5581 7.96571 10.7181L12.306 12.8882C12.4282 12.9493 12.572 12.9493 12.6942 12.8882L17.0345 10.7181C17.3544 10.5581 17.3544 10.1016 17.0345 9.94167L12.6942 7.77153ZM9.13033 10.3299L12.5001 8.64499L15.8699 10.3299L12.5001 12.0148L9.13033 10.3299ZM8.35392 14.2819C8.13952 14.1747 7.87881 14.2616 7.77161 14.476C7.66441 14.6904 7.75131 14.9512 7.96571 15.0584L12.306 17.2285C12.4282 17.2896 12.572 17.2896 12.6942 17.2285L17.0345 15.0584C17.2489 14.9512 17.3358 14.6904 17.2286 14.476C17.1214 14.2616 16.8607 14.1747 16.6463 14.2819L12.5001 16.355L8.35392 14.2819ZM7.77161 12.3059C7.87881 12.0915 8.13952 12.0046 8.35392 12.1118L12.5001 14.1849L16.6463 12.1118C16.8607 12.0046 17.1214 12.0915 17.2286 12.3059C17.3358 12.5203 17.2489 12.781 17.0345 12.8882L12.6942 15.0584C12.572 15.1195 12.4282 15.1195 12.306 15.0584L7.96571 12.8882C7.75131 12.781 7.66441 12.5203 7.77161 12.3059Z" fill="white"/>
</mask>
<g mask="url(#mask0_138_3482)">
<rect x="7.29167" y="7.29163" width="10.4167" height="10.4167" fill="white"/>
</g>
</g>
<defs>
<filter id="filter0_d_138_3482" x="3.29167" y="6.29163" width="18.4167" height="18.4166" filterUnits="userSpaceOnUse" color-interpolation-filters="sRGB">
<feFlood flood-opacity="0" result="BackgroundImageFix"/>
<feColorMatrix in="SourceAlpha" type="matrix" values="0 0 0 0 0 0 0 0 0 0 0 0 0 0 0 0 0 0 127 0" result="hardAlpha"/>
<feOffset dy="3"/>
<feGaussianBlur stdDeviation="2"/>
<feComposite in2="hardAlpha" operator="out"/>
<feColorMatrix type="matrix" values="0 0 0 0 0 0 0 0 0 0 0 0 0 0 0 0 0 0 0.25 0"/>
<feBlend mode="normal" in2="BackgroundImageFix" result="effect1_dropShadow_138_3482"/>
<feBlend mode="normal" in="SourceGraphic" in2="effect1_dropShadow_138_3482" result="shape"/>
</filter>
</defs>
</svg>
