<svg width="34" height="34" viewBox="0 0 34 34" fill="none" xmlns="http://www.w3.org/2000/svg">
<path fill-rule="evenodd" clip-rule="evenodd" d="M10.9167 15.8514L25.4703 16.1301C26.0225 16.1406 26.4616 16.5968 26.451 17.149C26.4404 17.7012 25.9842 18.1403 25.432 18.1297L10.8784 17.851L15.4452 22.5962C15.8282 22.9941 15.8161 23.6272 15.4181 24.0101C15.0202 24.3931 14.3872 24.381 14.0042 23.9831L7.76322 17.4984C7.6692 17.4007 7.59899 17.2889 7.55246 17.17C7.50653 17.053 7.48206 16.9253 7.48382 16.7919C7.48386 16.7889 7.48392 16.7859 7.48398 16.7829C7.48695 16.6484 7.51635 16.5207 7.56711 16.4046C7.61816 16.2876 7.6926 16.1785 7.7903 16.0845L14.2749 9.84352C14.6729 9.46055 15.3059 9.47267 15.6889 9.8706C16.0719 10.2685 16.0597 10.9016 15.6618 11.2846L10.9167 15.8514Z" fill="#656565"/>
<mask id="mask0_135_3451" style="mask-type:alpha" maskUnits="userSpaceOnUse" x="7" y="9" width="20" height="16">
<path fill-rule="evenodd" clip-rule="evenodd" d="M10.9167 15.8514L25.4703 16.1301C26.0225 16.1406 26.4616 16.5968 26.451 17.149C26.4404 17.7012 25.9842 18.1403 25.432 18.1297L10.8784 17.851L15.4452 22.5962C15.8282 22.9941 15.8161 23.6272 15.4181 24.0101C15.0202 24.3931 14.3872 24.381 14.0042 23.9831L7.76322 17.4984C7.6692 17.4007 7.59899 17.2889 7.55246 17.17C7.50653 17.053 7.48206 16.9253 7.48382 16.7919C7.48386 16.7889 7.48392 16.7859 7.48398 16.7829C7.48695 16.6484 7.51635 16.5207 7.56711 16.4046C7.61816 16.2876 7.6926 16.1785 7.7903 16.0845L14.2749 9.84352C14.6729 9.46055 15.3059 9.47267 15.6889 9.8706C16.0719 10.2685 16.0597 10.9016 15.6618 11.2846L10.9167 15.8514Z" fill="white"/>
</mask>
<g mask="url(#mask0_135_3451)">
<rect x="17.2924" width="24" height="24" transform="rotate(46.097 17.2924 0)" fill="#656565"/>
</g>
</svg>
