<svg width="14" height="14" viewBox="0 0 14 14" fill="none" xmlns="http://www.w3.org/2000/svg">
<path d="M10.5391 6.65015C10.4655 6.71881 10.4064 6.80161 10.3654 6.89361C10.3244 6.98561 10.3023 7.08492 10.3006 7.18562C10.2988 7.28633 10.3173 7.38636 10.355 7.47974C10.3927 7.57313 10.4489 7.65797 10.5201 7.72918C10.5913 7.8004 10.6762 7.85655 10.7695 7.89427C10.8629 7.93199 10.963 7.95051 11.0637 7.94874C11.1644 7.94696 11.2637 7.92492 11.3557 7.88393C11.4477 7.84293 11.5305 7.78383 11.5991 7.71015L10.5391 6.65015V6.65015ZM5.58915 8.41815C5.73132 8.55063 5.91937 8.62275 6.11367 8.61932C6.30797 8.61589 6.49336 8.53718 6.63077 8.39977C6.76818 8.26235 6.84689 8.07697 6.85032 7.88267C6.85375 7.68837 6.78163 7.50032 6.64915 7.35815L5.58915 8.41815ZM3.11415 7.00415C3.18783 6.93548 3.24694 6.85268 3.28793 6.76068C3.32892 6.66869 3.35096 6.56937 3.35274 6.46867C3.35451 6.36797 3.33599 6.26794 3.29827 6.17455C3.26055 6.08116 3.2044 5.99633 3.13318 5.92511C3.06197 5.85389 2.97713 5.79774 2.88374 5.76002C2.79036 5.7223 2.69033 5.70378 2.58962 5.70555C2.48892 5.70733 2.38961 5.72937 2.29761 5.77037C2.20561 5.81136 2.12281 5.87046 2.05415 5.94415L3.11415 7.00415ZM8.06415 5.23615C7.99548 5.16246 7.91268 5.10336 7.82068 5.06237C7.72868 5.02137 7.62937 4.99933 7.52867 4.99755C7.42797 4.99578 7.32794 5.0143 7.23455 5.05202C7.14116 5.08974 7.05633 5.14589 6.98511 5.21711C6.91389 5.28833 6.85774 5.37316 6.82002 5.46655C6.7823 5.55994 6.76378 5.65997 6.76555 5.76067C6.76733 5.86137 6.78937 5.96068 6.83036 6.05268C6.87136 6.14468 6.93046 6.22748 7.00415 6.29615L8.06415 5.23615ZM11.4231 5.76615L10.5391 6.65015L11.5991 7.71015L12.4841 6.82715L11.4231 5.76715V5.76615ZM6.47315 3.64615L7.88715 2.23115L6.82715 1.17115L5.41215 2.58415L6.47315 3.64515V3.64615ZM6.47315 7.18115C6.24093 6.94899 6.05672 6.67336 5.93104 6.37001C5.80537 6.06665 5.74068 5.74151 5.74068 5.41315C5.74068 5.08479 5.80537 4.75964 5.93104 4.45628C6.05672 4.15293 6.24093 3.8773 6.47315 3.64515L5.41315 2.58515C4.66326 3.33526 4.242 4.35249 4.242 5.41315C4.242 6.4738 4.66326 7.49104 5.41315 8.24115L6.47315 7.18115V7.18115ZM11.4231 2.23115C11.8918 2.69997 12.1551 3.33574 12.1551 3.99865C12.1551 4.66156 11.8918 5.29733 11.4231 5.76615L12.4831 6.82715C12.8546 6.45571 13.1493 6.01474 13.3503 5.52943C13.5513 5.04411 13.6548 4.52395 13.6548 3.99865C13.6548 3.47334 13.5513 2.95318 13.3503 2.46786C13.1493 1.98255 12.8546 1.54158 12.4831 1.17015L11.4231 2.23015V2.23115ZM12.4831 1.17115C11.733 0.421262 10.7158 0 9.65515 0C8.59449 0 7.57726 0.421262 6.82715 1.17115L7.88715 2.23115C8.1193 1.99893 8.39493 1.81472 8.69829 1.68904C9.00164 1.56337 9.32679 1.49868 9.65515 1.49868C9.98351 1.49868 10.3087 1.56337 10.612 1.68904C10.9154 1.81472 11.191 1.99893 11.4231 2.23115L12.4831 1.17115ZM5.41315 8.24115L5.58915 8.41815L6.64915 7.35815L6.47315 7.18115L5.41315 8.24115ZM2.23015 7.88815L3.11415 7.00415L2.05415 5.94415L1.17015 6.82715L2.23015 7.88715V7.88815ZM7.18015 10.0091L5.76615 11.4231L6.82615 12.4831L8.24115 11.0701L7.18115 10.0091H7.18015ZM7.18015 6.47315C7.41236 6.7053 7.59657 6.98093 7.72225 7.28429C7.84793 7.58764 7.91261 7.91279 7.91261 8.24115C7.91261 8.56951 7.84793 8.89465 7.72225 9.19801C7.59657 9.50136 7.41236 9.77699 7.18015 10.0091L8.24015 11.0691C8.99003 10.319 9.41129 9.3018 9.41129 8.24115C9.41129 7.18049 8.99003 6.16326 8.24015 5.41315L7.18015 6.47315V6.47315ZM2.23015 11.4231C1.76147 10.9543 1.49818 10.3186 1.49818 9.65565C1.49818 8.99273 1.76147 8.35697 2.23015 7.88815L1.17115 6.82715C0.421262 7.57726 0 8.59449 0 9.65515C0 10.7158 0.421262 11.733 1.17115 12.4831L2.23115 11.4231H2.23015ZM1.17015 12.4831C1.54158 12.8546 1.98255 13.1493 2.46786 13.3503C2.95318 13.5513 3.47334 13.6548 3.99865 13.6548C4.52395 13.6548 5.04411 13.5513 5.52943 13.3503C6.01474 13.1493 6.45571 12.8546 6.82715 12.4831L5.76615 11.4231C5.29733 11.8918 4.66156 12.1551 3.99865 12.1551C3.33574 12.1551 2.69997 11.8918 2.23115 11.4231L1.17015 12.4831ZM8.24015 5.41315L8.06415 5.23615L7.00415 6.29615L7.18015 6.47415L8.24015 5.41315V5.41315Z" fill="#BBBBBB"/>
</svg>
