<svg width="20" height="20" viewBox="0 0 20 20" fill="none" xmlns="http://www.w3.org/2000/svg">
<path fill-rule="evenodd" clip-rule="evenodd" d="M9.74415 18.2979C14.1458 18.4331 17.8928 15.1203 18.2981 10.7353C18.3643 10.0185 17.5518 9.56061 16.9729 9.98849C14.9826 11.4597 12.2155 11.2533 10.4654 9.5032C8.71525 7.7531 8.5089 4.98595 9.98007 2.99563C10.4079 2.41676 9.95004 1.60425 9.23325 1.67049C4.84824 2.07572 1.53544 5.82279 1.67068 10.2244C1.80593 14.626 5.34254 18.1626 9.74415 18.2979ZM7.73129 3.69834C6.87 6.07719 7.41901 8.81388 9.28684 10.6817C11.1547 12.5495 13.8914 13.0986 16.2702 12.2373C15.3124 14.8883 12.7366 16.7224 9.79534 16.632C6.27405 16.5238 3.44476 13.6945 3.33656 10.1732C3.24619 7.232 5.0803 4.65611 7.73129 3.69834Z" fill="black"/>
<mask id="mask0_0_140" style="mask-type:alpha" maskUnits="userSpaceOnUse" x="1" y="1" width="18" height="18">
<path fill-rule="evenodd" clip-rule="evenodd" d="M9.74415 18.2979C14.1458 18.4331 17.8928 15.1203 18.2981 10.7353C18.3643 10.0185 17.5518 9.56061 16.9729 9.98849C14.9826 11.4597 12.2155 11.2533 10.4654 9.5032C8.71525 7.7531 8.5089 4.98595 9.98007 2.99563C10.4079 2.41676 9.95004 1.60425 9.23325 1.67049C4.84824 2.07572 1.53544 5.82279 1.67068 10.2244C1.80593 14.626 5.34254 18.1626 9.74415 18.2979ZM7.73129 3.69834C6.87 6.07719 7.41901 8.81388 9.28684 10.6817C11.1547 12.5495 13.8914 13.0986 16.2702 12.2373C15.3124 14.8883 12.7366 16.7224 9.79534 16.632C6.27405 16.5238 3.44476 13.6945 3.33656 10.1732C3.24619 7.232 5.0803 4.65611 7.73129 3.69834Z" fill="white"/>
</mask>
<g mask="url(#mask0_0_140)">
<rect width="20" height="20" fill="rgb(20 184 166/1)"/>
</g>
</svg>


