<svg width="19" height="19" viewBox="0 0 19 19" fill="none" xmlns="http://www.w3.org/2000/svg">
<path fill-rule="evenodd" clip-rule="evenodd" d="M8.47917 0.770833V2.3125C8.47917 2.73822 8.82428 3.08333 9.25 3.08333C9.67572 3.08333 10.0208 2.73822 10.0208 2.3125V0.770833C10.0208 0.345114 9.67572 0 9.25 0C8.82428 0 8.47917 0.345114 8.47917 0.770833ZM4.625 9.25C4.625 11.8043 6.69568 13.875 9.25 13.875C11.8043 13.875 13.875 11.8043 13.875 9.25C13.875 6.69568 11.8043 4.625 9.25 4.625C6.69568 4.625 4.625 6.69568 4.625 9.25ZM12.3333 9.25C12.3333 10.9529 10.9529 12.3333 9.25 12.3333C7.54712 12.3333 6.16667 10.9529 6.16667 9.25C6.16667 7.54712 7.54712 6.16667 9.25 6.16667C10.9529 6.16667 12.3333 7.54712 12.3333 9.25ZM8.47917 17.7292V16.1875C8.47917 15.7618 8.82428 15.4167 9.25 15.4167C9.67572 15.4167 10.0208 15.7618 10.0208 16.1875V17.7292C10.0208 18.1549 9.67572 18.5 9.25 18.5C8.82428 18.5 8.47917 18.1549 8.47917 17.7292ZM2.70786 3.79798L3.80244 4.89256C4.10347 5.19359 4.59153 5.19359 4.89256 4.89256C5.19359 4.59153 5.19359 4.10347 4.89256 3.80244L3.79798 2.70786C3.49695 2.40683 3.00888 2.40683 2.70786 2.70786C2.40683 3.00888 2.40683 3.49695 2.70786 3.79798ZM14.702 15.7921L13.6074 14.6976C13.3064 14.3965 13.3064 13.9085 13.6074 13.6074C13.9085 13.3064 14.3965 13.3064 14.6976 13.6074L15.7921 14.702C16.0932 15.0031 16.0932 15.4911 15.7921 15.7921C15.4911 16.0932 15.0031 16.0932 14.702 15.7921ZM0.770833 10.0208H2.3125C2.73822 10.0208 3.08333 9.67572 3.08333 9.25C3.08333 8.82428 2.73822 8.47917 2.3125 8.47917H0.770833C0.345114 8.47917 0 8.82428 0 9.25C0 9.67572 0.345114 10.0208 0.770833 10.0208ZM17.7292 10.0208H16.1875C15.7618 10.0208 15.4167 9.67572 15.4167 9.25C15.4167 8.82428 15.7618 8.47917 16.1875 8.47917H17.7292C18.1549 8.47917 18.5 8.82428 18.5 9.25C18.5 9.67572 18.1549 10.0208 17.7292 10.0208ZM3.79798 15.7921L4.89256 14.6976C5.19359 14.3965 5.19359 13.9085 4.89256 13.6074C4.59153 13.3064 4.10347 13.3064 3.80244 13.6074L2.70786 14.702C2.40683 15.0031 2.40683 15.4911 2.70786 15.7921C3.00888 16.0932 3.49695 16.0932 3.79798 15.7921ZM15.7921 3.79798L14.6976 4.89256C14.3965 5.19359 13.9085 5.19359 13.6074 4.89256C13.3064 4.59153 13.3064 4.10347 13.6074 3.80244L14.702 2.70786C15.0031 2.40683 15.4911 2.40683 15.7921 2.70786C16.0932 3.00888 16.0932 3.49695 15.7921 3.79798Z" fill="black"/>
<mask id="mask0_122_3395" style="mask-type:alpha" maskUnits="userSpaceOnUse" x="0" y="0" width="19" height="19">
<path fill-rule="evenodd" clip-rule="evenodd" d="M8.47917 0.770833V2.3125C8.47917 2.73822 8.82428 3.08333 9.25 3.08333C9.67572 3.08333 10.0208 2.73822 10.0208 2.3125V0.770833C10.0208 0.345114 9.67572 0 9.25 0C8.82428 0 8.47917 0.345114 8.47917 0.770833ZM4.625 9.25C4.625 11.8043 6.69568 13.875 9.25 13.875C11.8043 13.875 13.875 11.8043 13.875 9.25C13.875 6.69568 11.8043 4.625 9.25 4.625C6.69568 4.625 4.625 6.69568 4.625 9.25ZM12.3333 9.25C12.3333 10.9529 10.9529 12.3333 9.25 12.3333C7.54712 12.3333 6.16667 10.9529 6.16667 9.25C6.16667 7.54712 7.54712 6.16667 9.25 6.16667C10.9529 6.16667 12.3333 7.54712 12.3333 9.25ZM8.47917 17.7292V16.1875C8.47917 15.7618 8.82428 15.4167 9.25 15.4167C9.67572 15.4167 10.0208 15.7618 10.0208 16.1875V17.7292C10.0208 18.1549 9.67572 18.5 9.25 18.5C8.82428 18.5 8.47917 18.1549 8.47917 17.7292ZM2.70786 3.79798L3.80244 4.89256C4.10347 5.19359 4.59153 5.19359 4.89256 4.89256C5.19359 4.59153 5.19359 4.10347 4.89256 3.80244L3.79798 2.70786C3.49695 2.40683 3.00888 2.40683 2.70786 2.70786C2.40683 3.00888 2.40683 3.49695 2.70786 3.79798ZM14.702 15.7921L13.6074 14.6976C13.3064 14.3965 13.3064 13.9085 13.6074 13.6074C13.9085 13.3064 14.3965 13.3064 14.6976 13.6074L15.7921 14.702C16.0932 15.0031 16.0932 15.4911 15.7921 15.7921C15.4911 16.0932 15.0031 16.0932 14.702 15.7921ZM0.770833 10.0208H2.3125C2.73822 10.0208 3.08333 9.67572 3.08333 9.25C3.08333 8.82428 2.73822 8.47917 2.3125 8.47917H0.770833C0.345114 8.47917 0 8.82428 0 9.25C0 9.67572 0.345114 10.0208 0.770833 10.0208ZM17.7292 10.0208H16.1875C15.7618 10.0208 15.4167 9.67572 15.4167 9.25C15.4167 8.82428 15.7618 8.47917 16.1875 8.47917H17.7292C18.1549 8.47917 18.5 8.82428 18.5 9.25C18.5 9.67572 18.1549 10.0208 17.7292 10.0208ZM3.79798 15.7921L4.89256 14.6976C5.19359 14.3965 5.19359 13.9085 4.89256 13.6074C4.59153 13.3064 4.10347 13.3064 3.80244 13.6074L2.70786 14.702C2.40683 15.0031 2.40683 15.4911 2.70786 15.7921C3.00888 16.0932 3.49695 16.0932 3.79798 15.7921ZM15.7921 3.79798L14.6976 4.89256C14.3965 5.19359 13.9085 5.19359 13.6074 4.89256C13.3064 4.59153 13.3064 4.10347 13.6074 3.80244L14.702 2.70786C15.0031 2.40683 15.4911 2.40683 15.7921 2.70786C16.0932 3.00888 16.0932 3.49695 15.7921 3.79798Z" fill="white"/>
</mask>
<g mask="url(#mask0_122_3395)">
<rect width="18.5" height="18.5" fill="#f4f4f5"/>
</g>
</svg>
