<svg width="18" height="14" viewBox="0 0 18 14" fill="none" xmlns="http://www.w3.org/2000/svg">
<path fill-rule="evenodd" clip-rule="evenodd" d="M3 0C2.20435 0 1.44129 0.316071 0.87868 0.87868C0.316071 1.44129 0 2.20435 0 3V11C0 11.7956 0.316071 12.5587 0.87868 13.1213C1.44129 13.6839 2.20435 14 3 14H15C15.7956 14 16.5587 13.6839 17.1213 13.1213C17.6839 12.5587 18 11.7956 18 11V3C18 2.20435 17.6839 1.44129 17.1213 0.87868C16.5587 0.316071 15.7956 0 15 0H3ZM3.245 2.187C3.09474 2.06268 2.90197 2.00178 2.70757 2.0172C2.51316 2.03263 2.33241 2.12317 2.20364 2.26963C2.07487 2.41609 2.00821 2.60695 2.0178 2.80173C2.02739 2.99651 2.11247 3.1799 2.255 3.313L8.505 8.813C8.64187 8.93324 8.81782 8.99955 9 8.99955C9.18218 8.99955 9.35813 8.93324 9.495 8.813L15.745 3.313C15.8875 3.1799 15.9726 2.99651 15.9822 2.80173C15.9918 2.60695 15.9251 2.41609 15.7964 2.26963C15.6676 2.12317 15.4868 2.03263 15.2924 2.0172C15.098 2.00178 14.9053 2.06268 14.755 2.187L9 7.251L3.245 2.187V2.187Z" fill="#71717A"/>
</svg>
