<svg width="20" height="20" viewBox="0 0 20 20" fill="none" xmlns="http://www.w3.org/2000/svg">
<path fill-rule="evenodd" clip-rule="evenodd" d="M10 0C4.475 0 0 4.588 0 10.253C0 14.79 2.862 18.622 6.838 19.98C7.338 20.07 7.525 19.762 7.525 19.493C7.525 19.25 7.512 18.443 7.512 17.583C5 18.059 4.35 16.957 4.15 16.38C4.037 16.085 3.55 15.175 3.125 14.932C2.775 14.74 2.275 14.265 3.112 14.252C3.9 14.24 4.462 14.996 4.65 15.303C5.55 16.854 6.988 16.419 7.562 16.149C7.65 15.483 7.912 15.034 8.2 14.778C5.975 14.522 3.65 13.638 3.65 9.716C3.65 8.601 4.037 7.678 4.675 6.96C4.575 6.704 4.225 5.653 4.775 4.243C4.775 4.243 5.612 3.974 7.525 5.294C8.325 5.064 9.175 4.948 10.025 4.948C10.875 4.948 11.725 5.063 12.525 5.294C14.437 3.961 15.275 4.244 15.275 4.244C15.825 5.653 15.475 6.704 15.375 6.96C16.012 7.678 16.4 8.588 16.4 9.716C16.4 13.65 14.063 14.522 11.838 14.778C12.2 15.098 12.513 15.714 12.513 16.675C12.513 18.046 12.5 19.148 12.5 19.495C12.5 19.763 12.688 20.084 13.188 19.981C15.1849 19.2849 16.911 17.976 18.12 16.241C19.3456 14.4849 20.0019 12.3945 20 10.253C20 4.588 15.525 0 10 0Z" fill="#71717A"/>
</svg>
