<svg width="18" height="18" viewBox="0 0 18 18" fill="none" xmlns="http://www.w3.org/2000/svg">
<path d="M9 0C6.556 0 6.25 0.0099999 5.29 0.0539999C4.331 0.0979999 3.677 0.25 3.105 0.472C2.50406 0.698147 1.95973 1.05273 1.51 1.511C1.01 2.011 0.701 2.513 0.471 3.105C0.249 3.677 0.097 4.331 0.053 5.289C0.00999997 6.25 0 6.556 0 9C0 11.444 0.0099999 11.75 0.0539999 12.71C0.0979999 13.669 0.25 14.323 0.472 14.895C0.702 15.487 1.01 15.989 1.511 16.49C2.011 16.99 2.513 17.298 3.105 17.528C3.677 17.75 4.331 17.902 5.289 17.946C6.25 17.99 6.556 18 9 18C11.444 18 11.75 17.99 12.71 17.946C13.669 17.902 14.323 17.75 14.895 17.527C15.4958 17.3011 16.0402 16.9469 16.49 16.489C16.99 15.989 17.298 15.487 17.528 14.895C17.75 14.323 17.902 13.669 17.946 12.711C17.99 11.751 18 11.444 18 9C18 6.556 17.99 6.25 17.946 5.29C17.902 4.331 17.75 3.677 17.527 3.105C17.3014 2.50425 16.9475 1.95993 16.49 1.51C15.99 1.01 15.488 0.701 14.896 0.471C14.324 0.249 13.67 0.097 12.712 0.053C11.75 0.00999997 11.444 0 9 0ZM9 1.622C11.403 1.622 11.688 1.631 12.637 1.674C13.514 1.714 13.991 1.861 14.307 1.984C14.728 2.147 15.027 2.342 15.343 2.657C15.658 2.972 15.853 3.272 16.016 3.692C16.139 4.009 16.286 4.486 16.326 5.363C16.369 6.313 16.378 6.597 16.378 9C16.378 11.403 16.369 11.688 16.326 12.637C16.286 13.514 16.139 13.991 16.016 14.307C15.853 14.728 15.658 15.027 15.343 15.343C15.0526 15.6418 14.6989 15.8718 14.308 16.016C13.991 16.139 13.514 16.286 12.637 16.326C11.687 16.369 11.403 16.378 9 16.378C6.597 16.378 6.312 16.369 5.363 16.326C4.486 16.286 4.009 16.139 3.693 16.016C3.3017 15.8719 2.94768 15.642 2.657 15.343C2.35819 15.0526 2.12823 14.6989 1.984 14.308C1.861 13.991 1.714 13.514 1.674 12.637C1.631 11.687 1.622 11.403 1.622 9C1.622 6.597 1.631 6.312 1.674 5.363C1.714 4.486 1.861 4.009 1.984 3.693C2.147 3.272 2.342 2.973 2.657 2.657C2.972 2.342 3.272 2.147 3.692 1.984C4.009 1.861 4.486 1.714 5.363 1.674C6.313 1.631 6.597 1.622 9 1.622V1.622Z" fill="#71717A"/>
<path d="M9.00005 12C8.2044 12 7.44134 11.6839 6.87873 11.1213C6.31612 10.5587 6.00005 9.79562 6.00005 8.99997C6.00005 8.20432 6.31612 7.44126 6.87873 6.87865C7.44134 6.31604 8.2044 5.99997 9.00005 5.99997C9.7957 5.99997 10.5588 6.31604 11.1214 6.87865C11.684 7.44126 12.0001 8.20432 12.0001 8.99997C12.0001 9.79562 11.684 10.5587 11.1214 11.1213C10.5588 11.6839 9.7957 12 9.00005 12ZM9.00005 4.37797C7.77422 4.37797 6.5986 4.86493 5.7318 5.73172C4.86501 6.59851 4.37805 7.77414 4.37805 8.99997C4.37805 10.2258 4.86501 11.4014 5.7318 12.2682C6.5986 13.135 7.77422 13.622 9.00005 13.622C10.2259 13.622 11.4015 13.135 12.2683 12.2682C13.1351 11.4014 13.6221 10.2258 13.6221 8.99997C13.6221 7.77414 13.1351 6.59851 12.2683 5.73172C11.4015 4.86493 10.2259 4.37797 9.00005 4.37797V4.37797ZM14.8841 4.19597C14.8841 4.33779 14.8561 4.47823 14.8018 4.60926C14.7476 4.7403 14.668 4.85935 14.5677 4.95964C14.4674 5.05993 14.3484 5.13948 14.2174 5.19376C14.0863 5.24803 13.9459 5.27597 13.8041 5.27597C13.6622 5.27597 13.5218 5.24803 13.3908 5.19376C13.2597 5.13948 13.1407 5.05993 13.0404 4.95964C12.9401 4.85935 12.8605 4.7403 12.8063 4.60926C12.752 4.47823 12.7241 4.33779 12.7241 4.19597C12.7241 3.90953 12.8378 3.63483 13.0404 3.43229C13.2429 3.22975 13.5176 3.11597 13.8041 3.11597C14.0905 3.11597 14.3652 3.22975 14.5677 3.43229C14.7703 3.63483 14.8841 3.90953 14.8841 4.19597V4.19597Z" fill="#71717A"/>
</svg>
