<svg width="19" height="16" viewBox="0 0 19 16" fill="none" xmlns="http://www.w3.org/2000/svg">
<path d="M17.055 3.98309C17.066 4.15709 17.066 4.33009 17.066 4.50609C17.066 9.84409 13.146 16.0001 5.976 16.0001V15.9971C3.84873 15.9977 1.76906 15.3675 0 14.1861C0.308 14.2241 0.618 14.2431 0.928 14.2441C2.69321 14.2419 4.40341 13.6296 5.769 12.5111C4.101 12.4791 2.639 11.3511 2.127 9.70609C2.71091 9.82271 3.31419 9.79871 3.887 9.63609C2.07 9.25609 0.76 7.60009 0.76 5.67609V5.62609C1.29921 5.93808 1.90734 6.11158 2.53 6.13109C0.816 4.94509 0.288 2.58309 1.322 0.737093C3.302 3.26109 6.222 4.79509 9.356 4.95709C9.20021 4.27087 9.22205 3.55625 9.41943 2.88081C9.61681 2.20537 9.98322 1.59145 10.484 1.09709C10.8515 0.734527 11.2888 0.450477 11.7695 0.262213C12.2501 0.0739487 12.764 -0.0145973 13.28 0.00195858C13.7959 0.0185145 14.3031 0.139826 14.7707 0.358519C15.2383 0.577211 15.6565 0.888715 16 1.27409C16.8759 1.09444 17.7135 0.76276 18.475 0.294093C18.185 1.22809 17.575 2.02309 16.762 2.52709C17.5365 2.43184 18.2915 2.21695 19 1.89009C18.4811 2.69771 17.8225 3.40644 17.055 3.98309Z" fill="#71717A"/>
</svg>
